HIERARCHY
ROOT Hips
{
	OFFSET 0.509025 88.424858 5.011631
	CHANNELS 6 Xposition Yposition Zposition Zrotation Yrotation Xrotation 
	JOINT Spine
	{
		OFFSET -0.000000 8.814246 -2.080107
		CHANNELS 3 Zrotation Yrotation Xrotation
		JOINT Spine1
		{
			OFFSET -0.000000 8.844141 0.000000
			CHANNELS 3 Zrotation Yrotation Xrotation
			JOINT Spine2
			{
				OFFSET 0.000000 11.682268 0.000000
				CHANNELS 3 Zrotation Yrotation Xrotation
				JOINT Spine3
				{
					OFFSET -0.000000 11.746700 0.000000
					CHANNELS 3 Zrotation Yrotation Xrotation
					JOINT Neck
					{
						OFFSET -0.000000 17.658264 0.000000
						CHANNELS 3 Zrotation Yrotation Xrotation
						JOINT Neck1
						{
							OFFSET 0.000000 5.101515 -0.000000
							CHANNELS 3 Zrotation Yrotation Xrotation
							JOINT Head
							{
								OFFSET -0.000000 5.101515 -0.000000
								CHANNELS 3 Zrotation Yrotation Xrotation
								JOINT HeadEnd
								{
									OFFSET 0.000000 11.655085 -0.000000
									CHANNELS 3 Zrotation Yrotation Xrotation
									End Site
									{
										OFFSET 0.000000 0.000000 0.000000
									}
								}
							}
						}
					}
					JOINT RightShoulder
					{
						OFFSET -2.625389 11.175210 -0.000000
						CHANNELS 3 Zrotation Yrotation Xrotation
						JOINT RightArm
						{
							OFFSET 0.000000 10.434715 -0.000000
							CHANNELS 3 Zrotation Yrotation Xrotation
							JOINT RightForeArm
							{
								OFFSET -0.000000 29.628420 0.000000
								CHANNELS 3 Zrotation Yrotation Xrotation
								JOINT RightHand
								{
									OFFSET -0.000000 22.857611 0.000000
									CHANNELS 3 Zrotation Yrotation Xrotation
									JOINT RightHandThumb1
									{
										OFFSET -2.867323 3.959563 2.944291
										CHANNELS 3 Zrotation Yrotation Xrotation
										JOINT RightHandThumb2
										{
											OFFSET -0.000000 3.350399 0.000000
											CHANNELS 3 Zrotation Yrotation Xrotation
											JOINT RightHandThumb3
											{
												OFFSET -0.000000 3.756509 -0.000000
												CHANNELS 3 Zrotation Yrotation Xrotation
												JOINT RightHandThumb4
												{
													OFFSET -0.000000 3.147345 0.000000
													CHANNELS 3 Zrotation Yrotation Xrotation
													End Site
													{
														OFFSET 0.000000 0.000000 0.000000
													}
												}
											}
										}
									}
									JOINT RightHandIndex1
									{
										OFFSET -0.086752 10.030893 2.345280
										CHANNELS 3 Zrotation Yrotation Xrotation
										JOINT RightHandIndex2
										{
											OFFSET 0.000000 4.061090 -0.000000
											CHANNELS 3 Zrotation Yrotation Xrotation
											JOINT RightHandIndex3
											{
												OFFSET 0.000000 3.248873 -0.000000
												CHANNELS 3 Zrotation Yrotation Xrotation
												JOINT RightHandIndex4
												{
													OFFSET 0.000000 2.639709 0.000000
													CHANNELS 3 Zrotation Yrotation Xrotation
													End Site
													{
														OFFSET 0.000000 0.000000 0.000000
													}
												}
											}
										}
									}
									JOINT RightHandMiddle1
									{
										OFFSET 0.104102 9.502952 0.006768
										CHANNELS 3 Zrotation Yrotation Xrotation
										JOINT RightHandMiddle2
										{
											OFFSET 0.000000 4.568727 0.000000
											CHANNELS 3 Zrotation Yrotation Xrotation
											JOINT RightHandMiddle3
											{
												OFFSET 0.000000 3.654981 -0.000000
												CHANNELS 3 Zrotation Yrotation Xrotation
												JOINT RightHandMiddle4
												{
													OFFSET -0.000000 2.741236 0.000000
													CHANNELS 3 Zrotation Yrotation Xrotation
													End Site
													{
														OFFSET 0.000000 0.000000 0.000000
													}
												}
											}
										}
									}
									JOINT RightHandRing1
									{
										OFFSET 0.086752 8.921708 -2.267442
										CHANNELS 3 Zrotation Yrotation Xrotation
										JOINT RightHandRing2
										{
											OFFSET 0.000000 4.061090 -0.000000
											CHANNELS 3 Zrotation Yrotation Xrotation
											JOINT RightHandRing3
											{
												OFFSET -0.000000 3.654981 0.000000
												CHANNELS 3 Zrotation Yrotation Xrotation
												JOINT RightHandRing4
												{
													OFFSET -0.000000 2.741236 0.000000
													CHANNELS 3 Zrotation Yrotation Xrotation
													End Site
													{
														OFFSET 0.000000 0.000000 0.000000
													}
												}
											}
										}
									}
									JOINT RightHandPinky1
									{
										OFFSET -0.173504 7.976997 -4.467199
										CHANNELS 3 Zrotation Yrotation Xrotation
										JOINT RightHandPinky2
										{
											OFFSET -0.000000 3.350399 0.000000
											CHANNELS 3 Zrotation Yrotation Xrotation
											JOINT RightHandPinky3
											{
												OFFSET 0.000000 2.842763 0.000000
												CHANNELS 3 Zrotation Yrotation Xrotation
												JOINT RightHandPinky4
												{
													OFFSET 0.000000 2.639709 0.000000
													CHANNELS 3 Zrotation Yrotation Xrotation
													End Site
													{
														OFFSET 0.000000 0.000000 0.000000
													}
												}
											}
										}
									}
									JOINT RightForeArmEnd
									{
										OFFSET 0.000000 0.000000 0.000000
										CHANNELS 3 Zrotation Yrotation Xrotation
										End Site
										{
											OFFSET 0.000000 0.000000 0.000000
										}
									}
								}
								JOINT RightArmEnd
								{
									OFFSET 0.000000 0.000000 0.000000
									CHANNELS 3 Zrotation Yrotation Xrotation
									End Site
									{
										OFFSET 0.000000 0.000000 0.000000
									}
								}
							}
						}
					}
					JOINT LeftShoulder
					{
						OFFSET 2.625389 11.175210 0.000000
						CHANNELS 3 Zrotation Yrotation Xrotation
						JOINT LeftArm
						{
							OFFSET -0.000000 10.813635 -0.000000
							CHANNELS 3 Zrotation Yrotation Xrotation
							JOINT LeftForeArm
							{
								OFFSET -0.000000 28.724781 -0.000000
								CHANNELS 3 Zrotation Yrotation Xrotation
								JOINT LeftHand
								{
									OFFSET 0.644384 25.716167 -0.328871
									CHANNELS 3 Zrotation Yrotation Xrotation
									JOINT LeftHandThumb1
									{
										OFFSET 2.867323 3.959563 2.944291
										CHANNELS 3 Zrotation Yrotation Xrotation
										JOINT LeftHandThumb2
										{
											OFFSET 0.000000 3.350399 0.000000
											CHANNELS 3 Zrotation Yrotation Xrotation
											JOINT LeftHandThumb3
											{
												OFFSET -0.000000 3.756509 -0.000000
												CHANNELS 3 Zrotation Yrotation Xrotation
												JOINT LeftHandThumb4
												{
													OFFSET 0.000000 3.100000 0.000000
													CHANNELS 3 Zrotation Yrotation Xrotation
													End Site
													{
														OFFSET 0.000000 0.000000 0.000000
													}
												}
											}
										}
									}
									JOINT LeftHandIndex1
									{
										OFFSET 0.086752 10.030893 2.345280
										CHANNELS 3 Zrotation Yrotation Xrotation
										JOINT LeftHandIndex2
										{
											OFFSET 0.000000 4.061090 0.000000
											CHANNELS 3 Zrotation Yrotation Xrotation
											JOINT LeftHandIndex3
											{
												OFFSET -0.000000 3.248873 -0.000000
												CHANNELS 3 Zrotation Yrotation Xrotation
												JOINT LeftHandIndex4
												{
													OFFSET 0.000000 2.639709 0.000000
													CHANNELS 3 Zrotation Yrotation Xrotation
													End Site
													{
														OFFSET 0.000000 0.000000 0.000000
													}
												}
											}
										}
									}
									JOINT LeftHandMiddle1
									{
										OFFSET -0.104102 9.502952 0.006768
										CHANNELS 3 Zrotation Yrotation Xrotation
										JOINT LeftHandMiddle2
										{
											OFFSET -0.000000 4.568727 -0.000000
											CHANNELS 3 Zrotation Yrotation Xrotation
											JOINT LeftHandMiddle3
											{
												OFFSET -0.000000 3.654981 -0.000000
												CHANNELS 3 Zrotation Yrotation Xrotation
												JOINT LeftHandMiddle4
												{
													OFFSET 0.000000 2.741236 0.000000
													CHANNELS 3 Zrotation Yrotation Xrotation
													End Site
													{
														OFFSET 0.000000 0.000000 0.000000
													}
												}
											}
										}
									}
									JOINT LeftHandRing1
									{
										OFFSET -0.086752 8.921708 -2.267442
										CHANNELS 3 Zrotation Yrotation Xrotation
										JOINT LeftHandRing2
										{
											OFFSET 0.000000 4.061090 0.000000
											CHANNELS 3 Zrotation Yrotation Xrotation
											JOINT LeftHandRing3
											{
												OFFSET 0.000000 3.654981 -0.000000
												CHANNELS 3 Zrotation Yrotation Xrotation
												JOINT LeftHandRing4
												{
													OFFSET -0.000000 2.741236 -0.000000
													CHANNELS 3 Zrotation Yrotation Xrotation
													End Site
													{
														OFFSET 0.000000 0.000000 0.000000
													}
												}
											}
										}
									}
									JOINT LeftHandPinky1
									{
										OFFSET 0.173504 7.976997 -4.467199
										CHANNELS 3 Zrotation Yrotation Xrotation
										JOINT LeftHandPinky2
										{
											OFFSET -0.000000 3.350399 -0.000000
											CHANNELS 3 Zrotation Yrotation Xrotation
											JOINT LeftHandPinky3
											{
												OFFSET 0.000000 2.842763 -0.000000
												CHANNELS 3 Zrotation Yrotation Xrotation
												JOINT LeftHandPinky4
												{
													OFFSET -0.000000 2.639709 -0.000000
													CHANNELS 3 Zrotation Yrotation Xrotation
													End Site
													{
														OFFSET 0.000000 0.000000 0.000000
													}
												}
											}
										}
									}
									JOINT LeftForeArmEnd
									{
										OFFSET 0.000000 0.000000 0.000000
										CHANNELS 3 Zrotation Yrotation Xrotation
										End Site
										{
											OFFSET 0.000000 0.000000 0.000000
										}
									}
								}
								JOINT LeftArmEnd
								{
									OFFSET 0.000000 0.000000 0.000000
									CHANNELS 3 Zrotation Yrotation Xrotation
									End Site
									{
										OFFSET 0.000000 0.000000 0.000000
									}
								}
							}
						}
					}
				}
			}
		}
	}
	JOINT RightUpLeg
	{
		OFFSET -11.289943 -0.000000 0.000000
		CHANNELS 3 Zrotation Yrotation Xrotation
		JOINT RightLeg
		{
			OFFSET 0.000000 -38.200325 -0.000000
			CHANNELS 3 Zrotation Yrotation Xrotation
			JOINT RightFoot
			{
				OFFSET -0.000000 -39.900856 0.000000
				CHANNELS 3 Zrotation Yrotation Xrotation
				JOINT RightToeBase
				{
					OFFSET 0.000000 0.000000 15.261641
					CHANNELS 3 Zrotation Yrotation Xrotation
					JOINT RightToeBaseEnd
					{
						OFFSET 0.000000 0.000000 7.370709
						CHANNELS 3 Zrotation Yrotation Xrotation
						End Site
						{
							OFFSET 0.000000 0.000000 0.000000
						}
					}
				}
				JOINT RightLegEnd
				{
					OFFSET 0.000000 0.000000 0.000000
					CHANNELS 3 Zrotation Yrotation Xrotation
					End Site
					{
						OFFSET 0.000000 0.000000 0.000000
					}
				}
			}
			JOINT RightUpLegEnd
			{
				OFFSET 0.000000 0.000000 0.000000
				CHANNELS 3 Zrotation Yrotation Xrotation
				End Site
				{
					OFFSET 0.000000 0.000000 0.000000
				}
			}
		}
	}
	JOINT LeftUpLeg
	{
		OFFSET 11.315661 0.000000 0.000000
		CHANNELS 3 Zrotation Yrotation Xrotation
		JOINT LeftLeg
		{
			OFFSET 0.000000 -38.200325 -0.000000
			CHANNELS 3 Zrotation Yrotation Xrotation
			JOINT LeftFoot
			{
				OFFSET 0.000000 -39.900856 -0.000000
				CHANNELS 3 Zrotation Yrotation Xrotation
				JOINT LeftToeBase
				{
					OFFSET 0.000000 -0.000000 15.261641
					CHANNELS 3 Zrotation Yrotation Xrotation
					JOINT LeftToeBaseEnd
					{
						OFFSET -0.000000 0.000000 7.539996
						CHANNELS 3 Zrotation Yrotation Xrotation
						End Site
						{
							OFFSET 0.000000 0.000000 0.000000
						}
					}
				}
				JOINT LeftLegEnd
				{
					OFFSET 0.000000 0.000000 0.000000
					CHANNELS 3 Zrotation Yrotation Xrotation
					End Site
					{
						OFFSET 0.000000 0.000000 0.000000
					}
				}
			}
			JOINT LeftUpLegEnd
			{
				OFFSET 0.000000 0.000000 0.000000
				CHANNELS 3 Zrotation Yrotation Xrotation
				End Site
				{
					OFFSET 0.000000 0.000000 0.000000
				}
			}
		}
	}
}
MOTION
Frames: 4
Frame Time: 0.016667
0.509025 88.424858 5.011631 1.385690 0.322874 -13.113659 -0.080527 -0.197433 7.696194 -0.940828 0.239291 4.678315 3.378798 -2.195714 6.579241 1.359156 -0.550613 5.142621 -10.184379 5.167153 1.140668 0.230265 2.808837 -5.299255 -0.629126 0.090971 -16.157167 0.000000 0.000000 0.000000 88.680786 0.279702 7.005677 69.255783 -21.507832 -0.211720 -0.038561 10.631679 30.333982 3.186957 21.038603 -8.212351 10.551765 -1.844433 39.903446 0.000004 0.000015 -26.225027 -0.000016 0.000036 -18.132511 0.000014 -0.000002 -0.000014 9.925279 17.347269 -9.699636 9.194860 -0.730848 -2.574097 9.379432 0.297271 -2.346044 0.000006 0.000006 -0.000008 12.149662 7.175048 -10.371860 9.484351 -0.889434 -1.071943 9.622248 0.115298 -0.903261 0.000013 -0.000158 0.000018 20.533484 -9.203536 -11.399384 12.430826 1.847078 1.663296 12.231599 -0.172852 1.286976 -0.000012 0.000257 0.000024 27.554871 -26.058262 -14.017218 13.567838 3.393813 5.401659 13.078172 -0.589938 4.578350 0.000693 0.000003 -0.000025 0.000000 0.000000 0.000000 0.000000 0.000000 0.000000 -89.272964 0.691166 11.258761 -56.639927 32.914005 6.426332 -0.887139 -17.106562 49.146000 -7.351693 4.835257 -12.282202 -10.810965 1.923460 39.780621 0.000000 0.000026 -26.063370 0.000141 -0.000012 -18.219345 -0.001099 -0.000029 -0.003027 -14.868571 17.173269 -10.098525 -8.488472 -0.758839 2.366809 -8.687126 0.242990 2.202525 0.000013 0.000015 0.000015 -13.426229 7.094762 -10.844707 -8.984718 -0.912144 0.969762 -8.903139 0.090427 0.855748 -0.001753 -0.000055 0.000009 -15.482516 -9.172295 -11.424434 -11.611404 1.827592 -1.639180 -11.497766 -0.160625 -1.257914 -0.000632 -0.000003 -0.000005 -14.311776 -26.423367 -15.247683 -12.637062 3.474790 -5.137119 -12.717008 -0.524286 -4.181425 0.000002 -0.000011 -0.000046 0.000000 0.000000 0.000000 0.000000 0.000000 0.000000 -3.291342 3.893903 7.831335 -0.159315 -0.557466 17.127512 -0.795929 -2.692466 14.692257 -0.789699 0.556002 -19.933117 0.000000 0.000000 0.000000 0.000000 0.000000 0.000000 0.000000 0.000000 0.000000 5.495940 8.770857 14.732197 0.194961 0.941282 10.307474 -2.473414 11.634849 20.669340 0.750301 -1.205525 -21.051052 0.000000 0.000000 0.000000 0.000000 0.000000 0.000000 0.000000 0.000000 0.000000 
0.503775 88.444534 4.931939 0.848749 -0.064074 -13.816531 -0.093688 -0.369871 8.862652 0.150798 -0.178929 3.899829 3.136518 -2.095411 7.737882 1.635812 -0.572229 4.388567 -10.530637 5.281542 1.615204 0.248572 3.121006 -5.249071 -1.432554 -0.611369 -17.437590 0.000000 0.000000 0.000000 88.629662 0.016308 7.320852 69.001419 -22.368288 -1.948656 0.239290 11.912811 30.988651 3.839778 22.739658 -7.770526 10.453382 -1.827884 39.924381 -0.000006 0.000012 -25.738552 -0.000028 0.000035 -17.822107 0.000006 -0.000003 -0.000008 10.801879 17.277496 -9.369991 9.140456 -0.579570 -3.060778 9.256845 0.410670 -2.856752 -0.000016 0.000009 -0.000016 12.640536 7.158054 -10.458092 9.521970 -0.841250 -1.272306 9.565930 0.154145 -1.074681 0.000022 -0.000007 0.000009 20.201727 -9.197581 -10.985199 12.156568 1.752935 1.898264 12.010928 -0.225121 1.473867 -0.000017 0.000083 0.000012 27.185568 -25.704683 -13.402020 13.101626 3.193559 5.764498 12.901434 -0.755869 4.918158 0.000162 0.000003 -0.000004 0.000000 0.000000 0.000000 0.000000 0.000000 0.000000 -89.428314 -0.314665 12.296322 -55.038368 31.665239 6.109065 -1.104772 -17.028488 48.729820 -7.959437 4.560554 -10.764282 -10.648648 1.881392 39.859982 -0.000004 0.000020 -25.952522 -0.000074 -0.000016 -17.930103 -0.000055 -0.000006 -0.000395 -14.418114 17.445602 -9.250085 -8.219448 -0.607530 3.156089 -8.279255 0.380888 2.980874 0.000001 0.000153 -0.000016 -13.676031 7.179395 -10.654951 -8.776191 -0.867088 1.262504 -8.535897 0.129109 1.080499 -0.000131 -0.000033 -0.000113 -15.367143 -9.187577 -11.166090 -11.458631 1.813204 -1.819685 -11.413975 -0.176568 -1.395303 -0.000123 0.000011 -0.000002 -14.368301 -26.470148 -14.363621 -12.737829 3.408832 -5.139112 -12.705263 -0.553895 -4.333031 -0.000302 -0.000003 -0.000038 0.000000 0.000000 0.000000 0.000000 0.000000 0.000000 -2.165074 4.616611 8.319303 -0.131864 -0.410317 16.659599 -2.003506 -3.980989 15.786494 -0.878758 0.418558 -20.194233 0.000000 0.000000 0.000000 0.000000 0.000000 0.000000 0.000000 0.000000 0.000000 6.209855 9.958559 14.074875 0.233347 1.090588 10.932832 -3.613686 11.398458 17.924906 0.703899 -1.403351 -18.868679 0.000000 0.000000 0.000000 0.000000 0.000000 0.000000 0.000000 0.000000 0.000000 
0.477547 88.449722 4.928599 0.762011 -0.431073 -13.894442 -0.013602 -0.361457 8.921079 0.147223 -0.144100 3.977253 3.193801 -2.169549 7.696021 1.725051 -0.582622 4.362506 -10.429296 5.448896 1.716472 0.285631 3.357023 -5.089696 -1.506533 -0.608730 -17.349741 0.000000 0.000000 0.000000 88.646591 0.007161 7.297627 68.831306 -22.186628 -2.124255 0.253194 11.935304 30.691700 4.214133 23.502529 -7.685146 10.422801 -1.828089 39.934166 -0.000006 0.000020 -25.672674 -0.000024 0.000031 -17.776817 0.000011 0.000002 -0.000018 10.685152 17.247791 -9.197704 8.997619 -0.591236 -3.027024 9.101847 0.398869 -2.825259 -0.000001 0.000019 -0.000016 12.496325 7.141659 -10.318006 9.346478 -0.846449 -1.256446 9.395463 0.150086 -1.060645 0.000022 -0.000026 -0.000001 20.019972 -9.168748 -10.947411 11.949075 1.761031 1.873774 11.798446 -0.218551 1.454605 -0.000023 0.000158 0.000004 27.087551 -25.633085 -13.449611 12.931258 3.219155 5.708952 12.727679 -0.736347 4.877023 0.000216 0.000008 -0.000007 0.000000 0.000000 0.000000 0.000000 0.000000 0.000000 -89.466904 -0.313269 12.277934 -54.388817 31.720057 6.444917 -1.000357 -17.314604 49.883587 -7.854811 5.316206 -10.671702 -10.564837 1.870808 39.895405 0.000006 0.000022 -25.778250 -0.000077 -0.000009 -17.810059 -0.000212 0.000001 -0.000601 -13.980351 17.436026 -9.031592 -8.042999 -0.616322 3.128250 -8.106972 0.372274 2.952162 0.000011 0.000297 -0.000014 -13.284971 7.172851 -10.537180 -8.585743 -0.870407 1.248186 -8.346852 0.125808 1.069209 -0.000080 -0.000033 -0.000140 -15.007841 -9.177045 -11.183756 -11.250843 1.816423 -1.795574 -11.209110 -0.172849 -1.379153 -0.000151 0.000016 0.000000 -13.957900 -26.463058 -14.531610 -12.548751 3.419834 -5.078891 -12.528688 -0.541471 -4.286515 -0.000354 0.000010 -0.000049 0.000000 0.000000 0.000000 0.000000 0.000000 0.000000 -2.044464 4.655091 8.253677 -0.128396 -0.403263 16.704992 -2.027071 -3.752141 15.774834 -0.861709 0.418461 -20.124498 0.000000 0.000000 0.000000 0.000000 0.000000 0.000000 0.000000 0.000000 0.000000 6.402666 10.181776 14.390812 0.231813 1.105165 10.616649 -3.728249 11.495553 17.911200 0.734300 -1.435036 -18.820400 0.000000 0.000000 0.000000 0.000000 0.000000 0.000000 0.000000 0.000000 0.000000 
0.448863 88.453918 4.930760 0.693247 -0.768628 -13.980962 0.062670 -0.354185 8.991831 0.138828 -0.116253 4.055299 3.213577 -2.211411 7.664905 1.803105 -0.577537 4.357201 -10.377504 5.568263 1.826470 0.309302 3.513044 -4.944672 -1.562123 -0.617220 -17.304724 0.000000 0.000000 0.000000 88.636520 -0.002578 7.282044 68.747452 -21.959555 -2.280663 0.266298 12.002611 30.389456 4.531000 24.330069 -7.589929 10.391268 -1.826479 39.945904 -0.000003 0.000019 -25.603748 -0.000026 0.000033 -17.732674 0.000010 0.000003 -0.000018 10.562165 17.230511 -9.081776 8.906910 -0.608444 -2.975797 9.000184 0.381844 -2.779336 -0.000000 0.000018 -0.000017 12.320153 7.131825 -10.218596 9.217958 -0.853853 -1.233838 9.271239 0.143925 -1.041289 0.000022 -0.000028 0.000002 19.778366 -9.150336 -10.901893 11.774023 1.772869 1.839815 11.620496 -0.209149 1.427760 -0.000022 0.000226 0.000006 26.911598 -25.587538 -13.459294 12.773637 3.255278 5.621387 12.570921 -0.707676 4.807830 0.000267 0.000007 -0.000012 0.000000 0.000000 0.000000 0.000000 0.000000 0.000000 -89.483650 -0.304817 12.242867 -53.856461 31.555733 6.698864 -0.901824 -17.497942 51.194729 -7.686460 6.235609 -10.404407 -10.495550 1.861341 39.925831 0.000005 0.000022 -25.631523 -0.000076 -0.000010 -17.707317 -0.000336 0.000001 -0.000637 -13.588881 17.420546 -8.871821 -7.875631 -0.629480 3.080930 -7.941467 0.359606 2.906073 0.000009 0.000398 -0.000014 -12.901074 7.166945 -10.448510 -8.401659 -0.875571 1.226685 -8.163324 0.121270 1.051319 -0.000169 -0.000036 -0.000146 -14.588728 -9.170259 -11.218076 -11.022552 1.823234 -1.762821 -10.987161 -0.167135 -1.355737 -0.000183 0.000017 -0.000000 -13.445697 -26.464905 -14.694834 -12.317224 3.440217 -4.988619 -12.310878 -0.523111 -4.215535 -0.000405 0.000008 -0.000048 0.000000 0.000000 0.000000 0.000000 0.000000 0.000000 -1.936025 4.753578 8.218112 -0.124814 -0.394320 16.748623 -2.078027 -3.479328 15.780369 -0.838702 0.414924 -20.079784 0.000000 0.000000 0.000000 0.000000 0.000000 0.000000 0.000000 0.000000 0.000000 6.576012 10.376101 14.730014 0.230800 1.120150 10.344434 -3.832628 11.630455 17.880228 0.762593 -1.462318 -18.790531 0.000000 0.000000 0.000000 0.000000 0.000000 0.000000 0.000000 0.000000 0.000000 
